<?xml version="1.0" standalone="no"?>
<!DOCTYPE svg PUBLIC "-//W3C//DTD SVG 20010904//EN"
 "http://www.w3.org/TR/2001/REC-SVG-20010904/DTD/svg10.dtd">
<svg version="1.0" xmlns="http://www.w3.org/2000/svg"
 width="512.000000pt" height="512.000000pt" viewBox="0 0 512.000000 512.000000"
 preserveAspectRatio="xMidYMid meet">
<metadata>
Created by potrace 1.14, written by Peter Selinger 2001-2017
</metadata>
<g transform="translate(0.000000,512.000000) scale(0.100000,-0.100000)"
fill="#000000" stroke="none">
<path d="M1580 4969 c-44 -8 -88 -25 -105 -42 -7 -6 -22 -19 -34 -27 -11 -8
-21 -20 -21 -27 0 -7 -4 -13 -9 -13 -8 0 -39 -55 -50 -90 -2 -8 -6 -220 -8
-470 -2 -250 -5 -455 -7 -457 -1 -1 -143 -3 -314 -3 -346 -1 -382 -6 -441 -61
-25 -25 -73 -104 -61 -104 1 0 -4 -13 -10 -30 -14 -35 -18 -55 -26 -110 -2
-22 -7 -51 -9 -65 -4 -25 -14 -94 -21 -140 -1 -14 -6 -49 -9 -79 -4 -30 -9
-64 -11 -75 -3 -12 -6 -37 -9 -56 -2 -19 -6 -48 -9 -65 -5 -28 -14 -93 -21
-155 -7 -59 -17 -126 -20 -140 -2 -8 -7 -37 -10 -65 -4 -27 -8 -61 -11 -75 -2
-14 -7 -45 -10 -70 -5 -46 -11 -85 -19 -130 -2 -14 -7 -47 -10 -75 -22 -169
-24 -180 -25 -180 -2 0 -13 -79 -13 -102 -1 -13 -3 -23 -6 -23 -5 0 -9 -36
-14 -127 -1 -18 -4 -33 -7 -33 -3 0 -6 -15 -7 -32 -1 -18 -4 -44 -7 -58 -3
-14 -9 -48 -11 -76 -3 -28 -8 -62 -12 -75 -9 -33 -8 -1257 1 -1294 4 -16 11
-32 17 -33 5 -2 9 -10 9 -18 0 -18 29 -54 73 -91 8 -6 34 -21 58 -34 l44 -23
2125 -1 c1169 -1 2130 0 2135 4 6 3 16 6 24 8 22 3 81 36 81 45 0 5 6 8 13 8
12 0 65 70 59 78 -2 3 2 8 8 12 33 21 37 97 35 709 -1 333 -5 618 -9 633 -3
16 -7 46 -9 68 -1 22 -5 40 -9 40 -5 0 -8 5 -8 11 0 5 6 7 13 3 9 -6 9 -4 -1
8 -7 9 -12 20 -11 24 1 5 0 11 -1 14 -1 3 -3 23 -5 45 -2 22 -6 49 -8 61 -3
11 -8 47 -11 79 -4 32 -8 61 -10 64 -2 3 -7 35 -11 71 -4 36 -9 74 -11 85 -2
11 -6 38 -9 60 -3 22 -8 54 -10 70 -3 17 -7 50 -10 75 -2 25 -7 56 -10 70 -3
14 -8 45 -10 70 -3 25 -10 72 -15 105 -5 33 -12 80 -15 105 -4 25 -8 56 -10
70 -2 14 -16 106 -30 205 -14 99 -27 191 -30 205 -3 21 -14 100 -20 150 -1 8
-5 33 -8 55 -4 22 -9 60 -12 85 -7 62 -15 102 -25 125 -30 73 -42 93 -67 117
-55 53 -84 57 -435 58 -177 0 -323 2 -325 3 -1 2 -3 205 -3 451 -1 296 -5 457
-12 474 -42 103 -71 138 -148 178 l-55 28 -970 1 c-533 0 -986 -2 -1005 -6z"/>
</g>
</svg>
